<mxfile host="app.diagrams.net" agent="Mozilla/5.0 (Macintosh; Intel Mac OS X 10_15_7) AppleWebKit/537.36 (KHTML, like Gecko) Chrome/137.0.0.0 Safari/537.36" version="27.1.5">
  <diagram name="第 1 页" id="LJZPLd0AiizT1cntus3y">
    <mxGraphModel dx="2061" dy="790" grid="0" gridSize="10" guides="1" tooltips="1" connect="1" arrows="1" fold="1" page="1" pageScale="1" pageWidth="827" pageHeight="1169" math="0" shadow="0">
      <root>
        <mxCell id="0" />
        <mxCell id="1" parent="0" />
        <mxCell id="BsU_l8rdW6ENL8caWbPU-1" value="自研vault?" style="ellipse;whiteSpace=wrap;html=1;aspect=fixed;fillColor=#60a917;strokeColor=#2D7600;shadow=1;sketch=1;curveFitting=1;jiggle=2;fontColor=#006600;fontSize=25;labelBackgroundColor=none;labelBorderColor=none;textShadow=1;" parent="1" vertex="1">
          <mxGeometry x="-202" y="159" width="190" height="190" as="geometry" />
        </mxCell>
        <mxCell id="BsU_l8rdW6ENL8caWbPU-2" value="如何运作?" style="ellipse;whiteSpace=wrap;html=1;aspect=fixed;fillColor=#d80073;strokeColor=#A50040;shadow=1;sketch=1;curveFitting=1;jiggle=2;fontColor=#99004D;fontSize=25;labelBackgroundColor=none;labelBorderColor=none;textShadow=1;" parent="1" vertex="1">
          <mxGeometry x="847" y="55" width="190" height="190" as="geometry" />
        </mxCell>
        <mxCell id="BsU_l8rdW6ENL8caWbPU-4" value="" style="rounded=1;whiteSpace=wrap;html=1;fillColor=#b1ddf0;strokeColor=#10739e;textShadow=1;labelBackgroundColor=none;sketch=1;curveFitting=1;jiggle=2;shadow=0;fillStyle=zigzag;strokeWidth=1;dashed=1;dashPattern=8 8;" parent="1" vertex="1">
          <mxGeometry x="127" y="309" width="133" height="259" as="geometry" />
        </mxCell>
        <mxCell id="BsU_l8rdW6ENL8caWbPU-5" value="合约" style="text;html=1;align=center;verticalAlign=middle;whiteSpace=wrap;rounded=0;fontStyle=1;fontSize=29;fontColor=light-dark(#006633,#EDEDED);fontFamily=Comic Sans MS;labelBorderColor=none;textShadow=1;" parent="1" vertex="1">
          <mxGeometry x="163.5" y="316" width="60" height="30" as="geometry" />
        </mxCell>
        <mxCell id="BsU_l8rdW6ENL8caWbPU-6" value="&lt;span&gt;&lt;font face=&quot;Comic Sans MS&quot; style=&quot;color: rgb(0, 102, 51);&quot;&gt;&lt;i&gt;VaultX&lt;/i&gt;&lt;/font&gt;&lt;/span&gt;" style="rounded=1;whiteSpace=wrap;html=1;fillColor=#647687;strokeColor=#314354;shadow=1;sketch=1;curveFitting=1;jiggle=2;fontSize=22;fontColor=#ffffff;" parent="1" vertex="1">
          <mxGeometry x="133.5" y="366" width="120" height="60" as="geometry" />
        </mxCell>
        <mxCell id="BsU_l8rdW6ENL8caWbPU-7" value="&lt;font face=&quot;Comic Sans MS&quot; style=&quot;color: rgb(153, 0, 77);&quot;&gt;&lt;i&gt;Strategy&lt;/i&gt;&lt;/font&gt;" style="rounded=1;whiteSpace=wrap;html=1;fillColor=#d80073;strokeColor=#A50040;shadow=1;sketch=1;curveFitting=1;jiggle=2;fontSize=22;fontColor=#ffffff;" parent="1" vertex="1">
          <mxGeometry x="133.5" y="485" width="120" height="60" as="geometry" />
        </mxCell>
        <mxCell id="BsU_l8rdW6ENL8caWbPU-15" value="" style="html=1;shadow=1;dashed=0;align=center;verticalAlign=middle;shape=mxgraph.arrows2.twoWayArrow;dy=0.6;dx=35;fillColor=#b1ddf0;strokeColor=#10739e;sketch=1;curveFitting=1;jiggle=2;" parent="1" vertex="1">
          <mxGeometry x="263" y="416" width="81" height="35" as="geometry" />
        </mxCell>
        <mxCell id="376P6v268EOVGXdCKAWA-1" value="Yield BE" style="rounded=1;whiteSpace=wrap;html=1;fillColor=#60a917;strokeColor=#2D7600;sketch=1;curveFitting=1;jiggle=2;shadow=1;fontColor=#006600;verticalAlign=top;fontSize=22;fontStyle=1" parent="1" vertex="1">
          <mxGeometry x="341" y="66" width="364" height="221" as="geometry" />
        </mxCell>
        <mxCell id="-Fq5rVPIBELq99R9etZK-3" value="" style="group;sketch=1;curveFitting=1;jiggle=2;" vertex="1" connectable="0" parent="1">
          <mxGeometry x="125" y="700" width="593" height="92" as="geometry" />
        </mxCell>
        <mxCell id="-Fq5rVPIBELq99R9etZK-1" value="" style="rounded=1;whiteSpace=wrap;html=1;fillColor=#b1ddf0;strokeColor=#10739e;sketch=1;curveFitting=1;jiggle=2;" vertex="1" parent="-Fq5rVPIBELq99R9etZK-3">
          <mxGeometry width="593" height="92" as="geometry" />
        </mxCell>
        <mxCell id="BsU_l8rdW6ENL8caWbPU-17" value="CompoundV3&lt;div&gt;USDT&lt;/div&gt;" style="rounded=1;whiteSpace=wrap;html=1;fillColor=#b0e3e6;strokeColor=#0e8088;sketch=1;curveFitting=1;jiggle=2;" parent="-Fq5rVPIBELq99R9etZK-3" vertex="1">
          <mxGeometry x="13" y="19" width="120" height="60" as="geometry" />
        </mxCell>
        <mxCell id="BsU_l8rdW6ENL8caWbPU-18" value="AaveV3&lt;div&gt;USDT&lt;/div&gt;" style="rounded=1;whiteSpace=wrap;html=1;fillColor=#b0e3e6;strokeColor=#0e8088;sketch=1;curveFitting=1;jiggle=2;" parent="-Fq5rVPIBELq99R9etZK-3" vertex="1">
          <mxGeometry x="182" y="19" width="120" height="60" as="geometry" />
        </mxCell>
        <mxCell id="BsU_l8rdW6ENL8caWbPU-19" value="UniSwap V3" style="rounded=1;whiteSpace=wrap;html=1;fillColor=#f8cecc;strokeColor=#b85450;gradientColor=#ea6b66;sketch=1;curveFitting=1;jiggle=2;" parent="-Fq5rVPIBELq99R9etZK-3" vertex="1">
          <mxGeometry x="354" y="16" width="120" height="60" as="geometry" />
        </mxCell>
        <mxCell id="-Fq5rVPIBELq99R9etZK-2" value="Defi 协议" style="text;html=1;align=center;verticalAlign=middle;whiteSpace=wrap;rounded=0;fontSize=17;" vertex="1" parent="-Fq5rVPIBELq99R9etZK-3">
          <mxGeometry x="498" y="30" width="78" height="34" as="geometry" />
        </mxCell>
        <mxCell id="-Fq5rVPIBELq99R9etZK-12" value="&lt;font style=&quot;color: rgb(0, 102, 0);&quot; face=&quot;Comic Sans MS&quot;&gt;&lt;b&gt;&lt;i&gt;WareHouse&lt;/i&gt;&lt;/b&gt;&lt;/font&gt;" style="rounded=1;whiteSpace=wrap;html=1;fillColor=#FF9933;strokeColor=#36393d;sketch=1;curveFitting=1;jiggle=2;verticalAlign=middle;align=center;fontSize=22;" vertex="1" parent="1">
          <mxGeometry x="127" y="68" width="140" height="105" as="geometry" />
        </mxCell>
        <mxCell id="-Fq5rVPIBELq99R9etZK-13" value="&lt;div&gt;&lt;font face=&quot;Comic Sans MS&quot; style=&quot;color: rgb(0, 102, 51);&quot;&gt;&lt;b&gt;&lt;i&gt;解析&lt;/i&gt;&lt;/b&gt;&lt;/font&gt;&lt;/div&gt;&lt;font face=&quot;Comic Sans MS&quot; style=&quot;color: rgb(0, 102, 51);&quot;&gt;&lt;b&gt;&lt;i&gt;Transfer&lt;/i&gt;&lt;/b&gt;&lt;/font&gt;" style="rounded=1;whiteSpace=wrap;html=1;fillColor=#FF6666;strokeColor=#b85450;sketch=1;curveFitting=1;jiggle=2;shadow=0;fontSize=22;fontColor=#67AB9F;" vertex="1" parent="1">
          <mxGeometry x="127" y="190" width="139" height="108" as="geometry" />
        </mxCell>
        <mxCell id="-Fq5rVPIBELq99R9etZK-21" value="" style="html=1;shadow=1;dashed=0;align=center;verticalAlign=middle;shape=mxgraph.arrows2.twoWayArrow;dy=0.6;dx=35;fillColor=#b1ddf0;strokeColor=#10739e;sketch=1;curveFitting=1;jiggle=2;" vertex="1" parent="1">
          <mxGeometry x="260" y="166" width="81" height="35" as="geometry" />
        </mxCell>
        <mxCell id="-Fq5rVPIBELq99R9etZK-27" value="" style="group" vertex="1" connectable="0" parent="1">
          <mxGeometry x="343" y="310" width="366" height="261.5" as="geometry" />
        </mxCell>
        <mxCell id="BsU_l8rdW6ENL8caWbPU-10" value="&lt;font style=&quot;font-size: 23px; color: rgb(0, 102, 51);&quot;&gt;&lt;b&gt;Vault Manage&lt;/b&gt;&lt;/font&gt;" style="rounded=1;whiteSpace=wrap;html=1;verticalAlign=top;fillColor=#1ba1e2;fontColor=#ffffff;strokeColor=#006EAF;shadow=1;sketch=1;curveFitting=1;jiggle=2;" parent="-Fq5rVPIBELq99R9etZK-27" vertex="1">
          <mxGeometry width="366.00000000000006" height="261.5" as="geometry" />
        </mxCell>
        <mxCell id="BsU_l8rdW6ENL8caWbPU-11" value="调仓" style="rounded=1;whiteSpace=wrap;html=1;fontSize=25;fillColor=#647687;fontColor=#ffffff;strokeColor=#314354;" parent="-Fq5rVPIBELq99R9etZK-27" vertex="1">
          <mxGeometry x="36.498614958448755" y="175.84489402697497" width="121.66204986149586" height="60.46242774566474" as="geometry" />
        </mxCell>
        <mxCell id="BsU_l8rdW6ENL8caWbPU-12" value="风控" style="rounded=1;whiteSpace=wrap;html=1;fontSize=25;fillColor=#a0522d;fontColor=#ffffff;strokeColor=#6D1F00;" parent="-Fq5rVPIBELq99R9etZK-27" vertex="1">
          <mxGeometry x="36.498614958448755" y="55.92774566473989" width="121.66204986149586" height="60.46242774566474" as="geometry" />
        </mxCell>
        <mxCell id="BsU_l8rdW6ENL8caWbPU-13" value="金库管理" style="rounded=1;whiteSpace=wrap;html=1;fontSize=25;fillColor=#6d8764;fontColor=#ffffff;strokeColor=#3A5431;" parent="-Fq5rVPIBELq99R9etZK-27" vertex="1">
          <mxGeometry x="211.8947368421053" y="55.92774566473989" width="121.66204986149586" height="60.46242774566474" as="geometry" />
        </mxCell>
        <mxCell id="BsU_l8rdW6ENL8caWbPU-14" value="合约管理" style="rounded=1;whiteSpace=wrap;html=1;fontSize=25;fillColor=#76608a;fontColor=#ffffff;strokeColor=#432D57;" parent="-Fq5rVPIBELq99R9etZK-27" vertex="1">
          <mxGeometry x="211.8947368421053" y="175.84489402697497" width="121.66204986149586" height="60.46242774566474" as="geometry" />
        </mxCell>
        <mxCell id="-Fq5rVPIBELq99R9etZK-31" value="" style="group" vertex="1" connectable="0" parent="1">
          <mxGeometry x="127" y="581" width="589" height="102" as="geometry" />
        </mxCell>
        <mxCell id="BsU_l8rdW6ENL8caWbPU-8" value="&lt;font face=&quot;Comic Sans MS&quot; style=&quot;color: rgb(0, 102, 0); font-size: 27px;&quot;&gt;&lt;b style=&quot;&quot;&gt;&lt;i&gt;Asset Chain: ETH/ARB&lt;/i&gt;&lt;/b&gt;&lt;/font&gt;" style="rounded=1;whiteSpace=wrap;html=1;fillColor=#d0cee2;strokeColor=#56517e;shadow=1;verticalAlign=top;sketch=1;curveFitting=1;jiggle=2;" parent="-Fq5rVPIBELq99R9etZK-31" vertex="1">
          <mxGeometry width="589" height="102" as="geometry" />
        </mxCell>
        <mxCell id="BsU_l8rdW6ENL8caWbPU-20" value="&lt;font style=&quot;color: rgb(0, 102, 0);&quot; face=&quot;Comic Sans MS&quot;&gt;&lt;i style=&quot;&quot;&gt;Lending&lt;/i&gt;&lt;/font&gt;" style="rounded=1;whiteSpace=wrap;html=1;fontSize=25;fillColor=#6d8764;strokeColor=#3A5431;fontColor=#ffffff;sketch=1;curveFitting=1;jiggle=2;" parent="-Fq5rVPIBELq99R9etZK-31" vertex="1">
          <mxGeometry x="95" y="50" width="120" height="47" as="geometry" />
        </mxCell>
        <mxCell id="BsU_l8rdW6ENL8caWbPU-21" value="&lt;font style=&quot;color: rgb(0, 102, 0);&quot; face=&quot;Comic Sans MS&quot;&gt;&lt;i style=&quot;&quot;&gt;UniSwap&lt;/i&gt;&lt;/font&gt;" style="rounded=1;whiteSpace=wrap;html=1;fontSize=25;fillColor=#6d8764;strokeColor=#3A5431;fontColor=#ffffff;sketch=1;curveFitting=1;jiggle=2;" parent="-Fq5rVPIBELq99R9etZK-31" vertex="1">
          <mxGeometry x="353" y="51" width="118" height="45" as="geometry" />
        </mxCell>
        <mxCell id="BsU_l8rdW6ENL8caWbPU-23" style="edgeStyle=orthogonalEdgeStyle;rounded=0;orthogonalLoop=1;jettySize=auto;html=1;" parent="-Fq5rVPIBELq99R9etZK-31" source="BsU_l8rdW6ENL8caWbPU-20" target="BsU_l8rdW6ENL8caWbPU-18" edge="1">
          <mxGeometry relative="1" as="geometry" />
        </mxCell>
        <mxCell id="BsU_l8rdW6ENL8caWbPU-22" style="edgeStyle=orthogonalEdgeStyle;rounded=0;orthogonalLoop=1;jettySize=auto;html=1;entryX=0.5;entryY=0;entryDx=0;entryDy=0;fillColor=#cdeb8b;strokeColor=#36393d;" parent="-Fq5rVPIBELq99R9etZK-31" source="BsU_l8rdW6ENL8caWbPU-20" target="BsU_l8rdW6ENL8caWbPU-17" edge="1">
          <mxGeometry relative="1" as="geometry" />
        </mxCell>
        <mxCell id="BsU_l8rdW6ENL8caWbPU-24" value="" style="edgeStyle=orthogonalEdgeStyle;rounded=0;orthogonalLoop=1;jettySize=auto;html=1;" parent="-Fq5rVPIBELq99R9etZK-31" source="BsU_l8rdW6ENL8caWbPU-21" target="BsU_l8rdW6ENL8caWbPU-19" edge="1">
          <mxGeometry relative="1" as="geometry" />
        </mxCell>
        <mxCell id="-Fq5rVPIBELq99R9etZK-32" value="API" style="rounded=1;whiteSpace=wrap;html=1;fontSize=25;fillColor=#6d8764;fontColor=#ffffff;strokeColor=#3A5431;" vertex="1" parent="1">
          <mxGeometry x="370" y="106" width="120" height="60" as="geometry" />
        </mxCell>
        <mxCell id="-Fq5rVPIBELq99R9etZK-33" value="交易" style="rounded=1;whiteSpace=wrap;html=1;fontSize=25;fillColor=#6d8764;fontColor=#ffffff;strokeColor=#3A5431;" vertex="1" parent="1">
          <mxGeometry x="544" y="106" width="120" height="60" as="geometry" />
        </mxCell>
        <mxCell id="-Fq5rVPIBELq99R9etZK-34" value="收益" style="rounded=1;whiteSpace=wrap;html=1;fontSize=25;fillColor=#6d8764;fontColor=#ffffff;strokeColor=#3A5431;" vertex="1" parent="1">
          <mxGeometry x="370" y="198" width="120" height="60" as="geometry" />
        </mxCell>
        <mxCell id="-Fq5rVPIBELq99R9etZK-35" value="PNL" style="rounded=1;whiteSpace=wrap;html=1;fontSize=25;fillColor=#6d8764;fontColor=#ffffff;strokeColor=#3A5431;" vertex="1" parent="1">
          <mxGeometry x="544" y="198" width="120" height="60" as="geometry" />
        </mxCell>
      </root>
    </mxGraphModel>
  </diagram>
</mxfile>
